<svg width="678" height="230" viewBox="0 0 678 230" fill="none" xmlns="http://www.w3.org/2000/svg">
<path d="M75.2832 154.782C63.2734 146.503 55.0442 133.793 52.4061 119.446C49.7679 105.1 52.9369 90.2931 61.2159 78.2833C69.4948 66.2734 82.2056 58.0442 96.552 55.4061C110.898 52.768 125.705 55.9369 137.715 64.2159L106.499 109.499L75.2832 154.782Z" fill="#2E79EA"/>
<path d="M107.686 108.194C119.7 116.467 127.935 129.174 130.58 143.519C133.226 157.864 130.064 172.672 121.791 184.686C113.517 196.7 100.811 204.935 86.4655 207.58C72.1204 210.226 57.3121 207.064 45.2983 198.791L76.4923 153.492L107.686 108.194Z" fill="white"/>
<path d="M189.6 194.2V177.56C193.013 177.56 195.84 177.347 198.08 176.92C200.32 176.493 202.027 175.747 203.2 174.68C204.48 173.507 205.387 171.853 205.92 169.72C206.453 167.48 206.72 164.653 206.72 161.24V61.4H230.24V162.2C230.24 169.453 229.387 175.48 227.68 180.28C225.973 184.973 222.987 188.493 218.72 190.84C214.56 193.08 208.64 194.2 200.96 194.2H189.6ZM276.508 192.44C269.788 192.44 264.241 191.213 259.868 188.76C255.494 186.2 252.188 182.52 249.948 177.72C247.814 172.92 246.748 167.107 246.748 160.28V129.24C246.748 122.413 247.814 116.6 249.948 111.8C252.188 107 255.494 103.373 259.868 100.92C264.241 98.36 269.788 97.08 276.508 97.08C283.228 97.08 288.774 98.36 293.148 100.92C297.628 103.373 300.934 107 303.068 111.8C305.308 116.6 306.428 122.413 306.428 129.24V160.28C306.428 167.107 305.308 172.92 303.068 177.72C300.934 182.52 297.628 186.2 293.148 188.76C288.774 191.213 283.228 192.44 276.508 192.44ZM276.668 177.4C279.121 177.4 280.934 176.707 282.108 175.32C283.281 173.933 284.028 172.067 284.348 169.72C284.668 167.267 284.828 164.6 284.828 161.72V127.8C284.828 124.92 284.668 122.307 284.348 119.96C284.028 117.613 283.281 115.747 282.108 114.36C280.934 112.867 279.121 112.12 276.668 112.12C274.214 112.12 272.401 112.867 271.228 114.36C270.054 115.747 269.254 117.613 268.828 119.96C268.508 122.307 268.348 124.92 268.348 127.8V161.72C268.348 164.6 268.508 167.267 268.828 169.72C269.254 172.067 270.054 173.933 271.228 175.32C272.401 176.707 274.214 177.4 276.668 177.4ZM336.2 192.44C332.573 192.44 329.587 191.533 327.24 189.72C324.893 187.8 323.187 185.293 322.12 182.2C321.053 179 320.52 175.64 320.52 172.12V98.52H342.28V168.12C342.28 170.893 342.707 173.08 343.56 174.68C344.52 176.173 346.227 176.92 348.68 176.92C350.28 176.92 351.88 176.493 353.48 175.64C355.187 174.787 356.84 173.773 358.44 172.6V98.52H380.2V191H358.44V182.2C355.347 185.187 351.933 187.64 348.2 189.56C344.467 191.48 340.467 192.44 336.2 192.44ZM397.425 191V98.52H419.185V112.76C422.385 107.32 425.585 103.427 428.785 101.08C431.985 98.6267 435.505 97.4 439.345 97.4C439.985 97.4 440.518 97.4533 440.945 97.56C441.478 97.56 442.065 97.6133 442.705 97.72V120.28C441.425 119.747 439.985 119.32 438.385 119C436.892 118.573 435.345 118.36 433.745 118.36C430.865 118.36 428.252 119.053 425.905 120.44C423.558 121.827 421.318 124.12 419.185 127.32V191H397.425ZM453.351 191V98.52H475.111V107.8C478.418 104.6 481.885 102.04 485.511 100.12C489.245 98.0933 493.245 97.08 497.511 97.08C501.351 97.08 504.391 98.04 506.631 99.96C508.871 101.773 510.525 104.227 511.591 107.32C512.658 110.413 513.191 113.773 513.191 117.4V191H491.431V121.72C491.431 118.947 491.005 116.813 490.151 115.32C489.298 113.827 487.645 113.08 485.191 113.08C483.698 113.08 482.045 113.507 480.231 114.36C478.525 115.213 476.818 116.28 475.111 117.56V191H453.351ZM557.133 192.44C550.199 192.44 544.546 191.16 540.173 188.6C535.799 185.933 532.546 182.093 530.413 177.08C528.386 171.96 527.373 165.827 527.373 158.68V130.84C527.373 123.48 528.386 117.293 530.413 112.28C532.546 107.267 535.799 103.48 540.173 100.92C544.653 98.36 550.306 97.08 557.133 97.08C564.493 97.08 570.199 98.4667 574.253 101.24C578.413 104.013 581.346 108.067 583.053 113.4C584.866 118.627 585.773 125.027 585.773 132.6V145.72H548.973V163.96C548.973 166.947 549.239 169.4 549.773 171.32C550.413 173.24 551.373 174.627 552.653 175.48C553.933 176.333 555.479 176.76 557.293 176.76C559.213 176.76 560.759 176.333 561.932 175.48C563.106 174.52 563.959 173.187 564.493 171.48C565.026 169.667 565.293 167.427 565.293 164.76V157.08H585.613V163.32C585.613 172.707 583.266 179.907 578.573 184.92C573.879 189.933 566.733 192.44 557.133 192.44ZM548.973 135H565.293V126.2C565.293 123 565.026 120.44 564.493 118.52C563.959 116.493 563.106 115.053 561.932 114.2C560.759 113.24 559.106 112.76 556.973 112.76C555.053 112.76 553.506 113.24 552.333 114.2C551.159 115.16 550.306 116.76 549.773 119C549.239 121.24 548.973 124.44 548.973 128.6V135ZM628.539 192.44C621.819 192.44 616.272 191.213 611.899 188.76C607.525 186.2 604.219 182.52 601.979 177.72C599.845 172.92 598.779 167.107 598.779 160.28V129.24C598.779 122.413 599.845 116.6 601.979 111.8C604.219 107 607.525 103.373 611.899 100.92C616.272 98.36 621.819 97.08 628.539 97.08C635.259 97.08 640.805 98.36 645.179 100.92C649.659 103.373 652.965 107 655.099 111.8C657.339 116.6 658.459 122.413 658.459 129.24V160.28C658.459 167.107 657.339 172.92 655.099 177.72C652.965 182.52 649.659 186.2 645.179 188.76C640.805 191.213 635.259 192.44 628.539 192.44ZM628.699 177.4C631.152 177.4 632.965 176.707 634.139 175.32C635.312 173.933 636.059 172.067 636.379 169.72C636.699 167.267 636.859 164.6 636.859 161.72V127.8C636.859 124.92 636.699 122.307 636.379 119.96C636.059 117.613 635.312 115.747 634.139 114.36C632.965 112.867 631.152 112.12 628.699 112.12C626.245 112.12 624.432 112.867 623.259 114.36C622.085 115.747 621.285 117.613 620.859 119.96C620.539 122.307 620.379 124.92 620.379 127.8V161.72C620.379 164.6 620.539 167.267 620.859 169.72C621.285 172.067 622.085 173.933 623.259 175.32C624.432 176.707 626.245 177.4 628.699 177.4Z" fill="white"/>
</svg>
